<?xml version="1.0" encoding="UTF-8"?> <svg xmlns="http://www.w3.org/2000/svg" xmlns:xlink="http://www.w3.org/1999/xlink" width="183.278" height="49.386" viewBox="0 0 183.278 49.386"><defs><clipPath id="clip-path"><rect id="Rectangle_3" data-name="Rectangle 3" width="183.278" height="49.386"></rect></clipPath></defs><g id="logo-insignia" style="isolation: isolate"><g id="Group_1" data-name="Group 1" clip-path="url(#clip-path)"><path id="Path_10" data-name="Path 10" d="M60.439,51.962H60.6a10.388,10.388,0,0,1,8.881-4.657c6.39,0,9.693,4.278,9.693,10.614v17.87H68.941V60.409c0-2.87-1.192-4.765-3.845-4.765-2.6,0-4.17,2.274-4.17,5.252V75.788H50.692V48.171h9.747Z" transform="translate(-38.622 -36.041)"></path><path id="Path_11" data-name="Path 11" d="M491.883,51.962h.163a10.388,10.388,0,0,1,8.881-4.657c6.39,0,9.693,4.278,9.693,10.614v17.87H500.385V60.409c0-2.87-1.192-4.765-3.845-4.765-2.6,0-4.17,2.274-4.17,5.252V75.788H482.136V48.171h9.747Z" transform="translate(-367.334 -36.041)"></path><path id="Path_12" data-name="Path 12" d="M667.067,72.756h-.109c-1.841,2.545-4.765,3.736-8.339,3.736-5.307,0-9.206-2.87-9.206-8.285,0-6.119,4.711-7.906,10.018-8.5,5.848-.65,7.419-1.354,7.419-3.086,0-1.516-.7-2.654-2.924-2.654a3.4,3.4,0,0,0-3.628,3.3h-9.693c.216-5.469,4.44-9.964,13.1-9.964,4.224,0,6.931.541,9.043,1.841,2.87,1.787,4.278,4.6,4.278,8.285V71.239c0,2.329.163,3.574,1.029,4.116v.433H667.988a8.025,8.025,0,0,1-.921-3.032m.054-6.985V63.333a16.8,16.8,0,0,1-3.953,1.3c-2.978.65-3.9,1.516-3.9,3.141,0,1.841,1.516,2.653,3.195,2.653a4.337,4.337,0,0,0,4.657-4.657" transform="translate(-494.781 -36.041)"></path><path id="Path_13" data-name="Path 13" d="M179.359,66.853h9.8c.162,2.274,1.57,3.628,4.169,3.628,2,0,3.52-.7,3.52-2.383,0-2.274-3.195-2.545-6.769-3.087-4.657-.7-10.018-1.949-10.018-8.881,0-5.686,5.794-8.827,12.563-8.827,8.393,0,12.78,3.141,13.159,8.556h-9.639c-.271-2.058-1.787-2.491-3.466-2.491-1.516,0-2.924.6-2.924,2,0,1.57,2.545,1.9,5.686,2.328,5.036.7,11.426,1.841,11.426,9.53,0,6.606-6.011,9.476-13.592,9.476-8.177,0-13.862-3.52-13.917-9.855" transform="translate(-136.652 -36.041)"></path><path id="Path_14" data-name="Path 14" d="M348.794,76.276h9.855c.379,1.137,1.679,2.328,4.116,2.328,3.3,0,4.44-1.949,4.44-4.819V71.294h-.216A8.819,8.819,0,0,1,360,74.434c-6.281,0-11.751-4.386-11.751-13.05,0-7.906,4.495-14.079,11.263-14.079,3.9,0,6.282,1.516,7.852,3.9h.162V48.171h9.747V72.485c0,4.441-1.625,7.852-4.061,9.91-2.545,2.166-6.173,3.032-10.288,3.032-7.744,0-13.159-3.032-14.133-9.151m18.844-15.325c0-3.466-1.733-6.227-4.711-6.227-2.87,0-4.711,2.491-4.711,6.227,0,3.682,1.841,6.335,4.711,6.335,2.978,0,4.711-2.707,4.711-6.335" transform="translate(-265.329 -36.041)"></path><path id="Path_15" data-name="Path 15" d="M302.574,5.523a5.324,5.324,0,0,1,.433-2.139A5.619,5.619,0,0,1,305.958.433a5.5,5.5,0,0,1,4.278,0,5.619,5.619,0,0,1,2.951,2.951,5.34,5.34,0,0,1,.433,2.139,5.338,5.338,0,0,1-.433,2.139,5.621,5.621,0,0,1-2.951,2.951,5.5,5.5,0,0,1-4.278,0,5.621,5.621,0,0,1-2.951-2.951,5.323,5.323,0,0,1-.433-2.139" transform="translate(-230.528 0)"></path><path id="Path_16" data-name="Path 16" d="M0,5.523A5.324,5.324,0,0,1,.433,3.384,5.619,5.619,0,0,1,3.384.433,5.333,5.333,0,0,1,5.523,0,5.336,5.336,0,0,1,7.662.433a5.619,5.619,0,0,1,2.951,2.951,5.34,5.34,0,0,1,.433,2.139,5.338,5.338,0,0,1-.433,2.139,5.621,5.621,0,0,1-2.951,2.951,5.324,5.324,0,0,1-2.139.433,5.321,5.321,0,0,1-2.139-.433A5.621,5.621,0,0,1,.433,7.662,5.322,5.322,0,0,1,0,5.523"></path><path id="Path_17" data-name="Path 17" d="M605.149,5.523a5.325,5.325,0,0,1,.433-2.139A5.618,5.618,0,0,1,608.533.433a5.5,5.5,0,0,1,4.278,0,5.619,5.619,0,0,1,2.951,2.951,5.339,5.339,0,0,1,.433,2.139,5.338,5.338,0,0,1-.433,2.139,5.621,5.621,0,0,1-2.951,2.951,5.5,5.5,0,0,1-4.278,0,5.62,5.62,0,0,1-2.951-2.951,5.323,5.323,0,0,1-.433-2.139" transform="translate(-461.056 0)"></path><line id="Line_1" data-name="Line 1" x2="11.542" y2="11.542" transform="translate(5.421 5.431)" fill="#fff"></line></g></g></svg> 